<svg width="21" height="20" viewBox="0 0 21 20" fill="none" xmlns="http://www.w3.org/2000/svg">
<path d="M3 14.2363V15.1778C3 15.4205 3.19676 15.6172 3.43945 15.6172C3.68215 15.6172 3.87891 15.4205 3.87891 15.1778V14.6758H17.1211V15.1778C17.1211 15.4205 17.3179 15.6172 17.5605 15.6172C17.8032 15.6172 18 15.4205 18 15.1778V14.2363V12.793H3V14.2363Z" fill="#969696"/>
<path d="M16.3838 9.08981H4.61619C3.72504 9.08981 3 9.81485 3 10.706V11.914H18V10.706C18 9.81485 17.275 9.08981 16.3838 9.08981Z" fill="#969696"/>
<path d="M8.85258 7.14453C8.446 7.14453 8.11523 7.47526 8.11523 7.88182V8.21091H12.8848V7.88182C12.8848 7.47526 12.554 7.14453 12.1475 7.14453H8.85258Z" fill="#969696"/>
<path d="M7.23634 7.8818C7.23634 6.99061 7.96137 6.2656 8.85258 6.2656H12.1475C13.0387 6.2656 13.7637 6.99061 13.7637 7.8818V8.21089H16.1172V5.99897C16.1172 5.10779 15.3922 4.38278 14.501 4.38278H6.49905C5.60787 4.38278 4.88286 5.10779 4.88286 5.99897V8.21089H7.23634V7.8818Z" fill="#969696"/>
</svg>
