<svg width="25" height="25" viewBox="0 0 25 25" fill="none" xmlns="http://www.w3.org/2000/svg">
<path d="M8.75339 7.13568H3.94138C3.6286 7.13568 3.375 7.38924 3.375 7.70206V10.573C3.375 10.8858 3.6286 11.1394 3.94138 11.1394C4.69158 11.1394 5.30192 11.7497 5.30192 12.5C5.30192 13.2502 4.69158 13.8605 3.94138 13.8605C3.6286 13.8605 3.375 14.1141 3.375 14.4269V17.2979C3.375 17.6107 3.6286 17.8642 3.94138 17.8642H8.75339V7.13568Z" fill="#969696"/>
<path d="M20.8086 11.1394C21.1214 11.1394 21.375 10.8858 21.375 10.573V7.70206C21.375 7.38924 21.1214 7.13568 20.8086 7.13568H9.88614V17.8643H20.8086C21.1214 17.8643 21.375 17.6107 21.375 17.2979V14.4269C21.375 14.1141 21.1214 13.8605 20.8086 13.8605C20.0584 13.8605 19.4481 13.2502 19.4481 12.5C19.4481 11.7497 20.0584 11.1394 20.8086 11.1394Z" fill="#969696"/>
</svg>
