<svg width="21" height="20" viewBox="0 0 21 20" fill="none" xmlns="http://www.w3.org/2000/svg">
    <path
        d="M6.46501 3.36724C6.31182 3.32385 6.14703 3.36665 6.03444 3.4793L4.68752 4.82621C4.58859 4.92515 4.54268 5.06527 4.56389 5.20361C4.5851 5.34192 4.67091 5.46183 4.79498 5.52655L8.98166 7.71094L11.8101 4.88246L6.46501 3.36724Z"
        fill="#0FB8D3" />
    <path
        d="M14.9735 15.705C15.0382 15.829 15.1582 15.9149 15.2965 15.9361C15.3187 15.9395 15.341 15.9412 15.3631 15.9412C15.4787 15.9412 15.5908 15.8955 15.6738 15.8125L17.0207 14.4655C17.1334 14.3529 17.1762 14.1882 17.1328 14.035L15.6176 8.68982L12.7891 11.5183L14.9735 15.705Z"
        fill="#0FB8D3" />
    <path
        d="M16.66 2.51083C15.7397 2.63455 14.8713 3.06427 14.2146 3.7209L7.69894 10.2366L4.71264 9.40973C4.56018 9.36749 4.39661 9.41055 4.28464 9.52252L3.12871 10.6784C3.03103 10.776 2.98498 10.9139 3.00435 11.0507C3.02368 11.1875 3.10624 11.3072 3.22715 11.3739L7.0288 13.4712L9.12609 17.2728C9.1928 17.3938 9.31251 17.4763 9.44927 17.4956C9.46983 17.4986 9.4904 17.5 9.51091 17.5C9.62657 17.5 9.73863 17.4543 9.8216 17.3713L10.9775 16.2154C11.0894 16.1034 11.1325 15.9399 11.0903 15.7874L10.2634 12.8011L16.7791 6.28536C17.4357 5.62876 17.8655 4.76029 17.9892 3.84002C18.0387 3.47155 17.9164 3.10942 17.6535 2.84654C17.3905 2.58363 17.0284 2.4614 16.66 2.51083Z"
        fill="#0FB8D3" />
</svg>
