<svg width="25" height="25" viewBox="0 0 25 25" fill="none" xmlns="http://www.w3.org/2000/svg">
<path d="M12.125 5.02875C9.95255 5.02875 8.18511 6.79618 8.18511 8.96864C8.18511 11.1411 9.95255 12.9085 12.125 12.9085C14.2975 12.9085 16.0649 11.1411 16.0649 8.96864C16.0649 6.79618 14.2975 5.02875 12.125 5.02875Z" fill="#969696"/>
<path d="M17.027 15.4824C15.9483 14.3872 14.5184 13.7841 13.0005 13.7841H11.2495C9.73165 13.7841 8.30168 14.3872 7.22303 15.4824C6.14965 16.5723 5.55853 18.0109 5.55853 19.5334C5.55853 19.7751 5.75453 19.9711 5.99629 19.9711H18.2537C18.4955 19.9711 18.6915 19.7751 18.6915 19.5334C18.6915 18.0109 18.1004 16.5723 17.027 15.4824Z" fill="#969696"/>
</svg>
